<svg xmlns="http://www.w3.org/2000/svg" version="1.1" xmlns:xlink="http://www.w3.org/1999/xlink" xmlns:svgjs="http://svgjs.dev/svgjs" width="1920" height="920" preserveAspectRatio="none" viewBox="0 0 1920 920"><g mask="url(&quot;#SvgjsMask1038&quot;)" fill="none"><rect width="1920" height="920" x="0" y="0" fill="url(&quot;#SvgjsLinearGradient1039&quot;)"></rect><path d="M1204.763,1042.341C1295.995,1043.585,1390.86,1005.037,1430.464,922.841C1466.772,847.487,1415.299,767.528,1371.515,696.258C1330.7,629.82,1282.426,562.404,1204.763,555.449C1115.38,547.445,1022.716,583.814,976.787,660.911C929.936,739.555,942.515,838.25,989.479,916.827C1035.155,993.248,1115.74,1041.127,1204.763,1042.341" fill="rgba(121, 177, 145, 0.62)" class="triangle-float1"></path><path d="M1591.088,122.552C1632.615,121.578,1672.44,104.072,1694.088,68.621C1716.67,31.641,1720.757,-15.698,1698.044,-52.598C1676.231,-88.036,1632.645,-100.883,1591.088,-98.719C1553.429,-96.758,1522.337,-74.026,1501.827,-42.381C1478.862,-6.947,1459.271,36.52,1479.368,73.655C1500.105,111.972,1547.531,123.573,1591.088,122.552" fill="rgba(121, 177, 145, 0.62)" class="triangle-float1"></path><path d="M1093.283,398.773C1126.45,398.557,1153.185,374.047,1168.813,344.792C1183.48,317.336,1184.161,284.659,1168.663,257.664C1153.098,230.553,1124.544,213.098,1093.283,213.232C1062.245,213.365,1034.642,231.49,1019.014,258.306C1003.269,285.324,1001.416,318.14,1016.033,345.785C1031.676,375.371,1059.817,398.99,1093.283,398.773" fill="rgba(121, 177, 145, 0.62)" class="triangle-float1"></path><path d="M1616.961,1095.4C1680.528,1098.039,1729.541,1046.717,1761.904,991.941C1794.98,935.957,1819.627,866.267,1784.769,811.374C1751.359,758.761,1679.285,763.403,1616.961,763.69C1555.396,763.974,1482.632,759.613,1451.813,812.91C1420.976,866.237,1460.375,927.533,1491.465,980.713C1522.119,1033.148,1556.275,1092.881,1616.961,1095.4" fill="rgba(121, 177, 145, 0.62)" class="triangle-float2"></path><path d="M1682.631,1162.378C1774.361,1162.047,1859.287,1116.686,1907.669,1038.752C1958.986,956.09,1981.333,848.536,1927.972,767.179C1877.898,690.834,1773.852,691.826,1682.631,695.65C1600.28,699.102,1515.954,717.595,1470.504,786.355C1420.363,862.212,1410.085,961.188,1454.763,1040.386C1500.134,1120.813,1590.29,1162.711,1682.631,1162.378" fill="rgba(121, 177, 145, 0.62)" class="triangle-float1"></path><path d="M539.639,816.056C611.049,814.866,666.024,761.335,702.26,699.79C739.172,637.097,765.522,559.449,727.093,497.675C689.99,438.033,609.868,437.098,539.639,438.382C472.523,439.609,400.094,447.918,363.697,504.321C324.744,564.685,332.039,642.808,367.35,705.372C403.31,769.086,466.488,817.275,539.639,816.056" fill="rgba(121, 177, 145, 0.62)" class="triangle-float2"></path><path d="M258.581,1133.889C322.844,1134.553,389.234,1115.956,423.216,1061.409C458.951,1004.047,454.106,931.49,421.575,872.253C387.697,810.563,328.96,762.048,258.581,761.615C187.559,761.178,125.623,807.624,92.079,870.227C60.358,929.428,63.874,1001.278,99.736,1058.067C133.313,1111.237,195.7,1133.239,258.581,1133.889" fill="rgba(121, 177, 145, 0.62)" class="triangle-float1"></path><path d="M1457.923,295.934C1505.246,293.328,1545.645,264.105,1568.439,222.551C1590.328,182.647,1588.632,135.756,1568.055,95.16C1545.016,49.707,1508.88,4.927,1457.923,4.518C1406.502,4.105,1370.417,48.846,1344.681,93.365C1318.912,137.941,1298.978,191.064,1324.102,236.006C1349.664,281.731,1405.617,298.814,1457.923,295.934" fill="rgba(121, 177, 145, 0.62)" class="triangle-float1"></path></g><defs><mask id="SvgjsMask1038"><rect width="1920" height="920" fill="#ffffff"></rect></mask><linearGradient x1="13.02%" y1="-27.17%" x2="86.98%" y2="127.17%" gradientUnits="userSpaceOnUse" id="SvgjsLinearGradient1039"><stop stop-color="rgba(43, 63, 52, 1)" offset="0"></stop><stop stop-color="rgba(69, 101, 83, 1)" offset="1"></stop></linearGradient><style>
                @keyframes float1 {
                    0%{transform: translate(0, 0)}
                    50%{transform: translate(-10px, 0)}
                    100%{transform: translate(0, 0)}
                }

                .triangle-float1 {
                    animation: float1 5s infinite;
                }

                @keyframes float2 {
                    0%{transform: translate(0, 0)}
                    50%{transform: translate(-5px, -5px)}
                    100%{transform: translate(0, 0)}
                }

                .triangle-float2 {
                    animation: float2 4s infinite;
                }

                @keyframes float3 {
                    0%{transform: translate(0, 0)}
                    50%{transform: translate(0, -10px)}
                    100%{transform: translate(0, 0)}
                }

                .triangle-float3 {
                    animation: float3 6s infinite;
                }
            </style></defs></svg>