<svg xmlns="http://www.w3.org/2000/svg" version="1.1" xmlns:xlink="http://www.w3.org/1999/xlink" xmlns:svgjs="http://svgjs.dev/svgjs" width="1440" height="560" preserveAspectRatio="none" viewBox="0 0 1440 560"><g mask="url(&quot;#SvgjsMask1003&quot;)" fill="none"><rect width="1440" height="560" x="0" y="0" fill="rgba(43, 63, 52, 1)"></rect><path d="M257.14 588.64C434.41 573.04 555.18 207.88 858.33 207.55 1161.49 207.22 1299.18 427.95 1459.53 431.55" stroke="rgba(83, 126, 93, 1)" stroke-width="2"></path><path d="M522.52 612.45C636.37 603.24 712.88 374.92 912.24 373.96 1111.59 373 1107.09 443.96 1301.95 443.96 1496.81 443.96 1592.68 374.24 1691.67 373.96" stroke="rgba(83, 126, 93, 1)" stroke-width="2"></path><path d="M524.08 633.92C629.54 632.3 724.13 503.56 925.32 503.52 1126.51 503.48 1125.94 573.52 1326.57 573.52 1527.19 573.52 1625.98 503.78 1727.81 503.52" stroke="rgba(83, 126, 93, 1)" stroke-width="2"></path><path d="M810.68 663.79C923.7 607.33 873.77 238.85 1082.55 237.79 1291.34 236.73 1477.16 478.53 1626.3 484.19" stroke="rgba(83, 126, 93, 1)" stroke-width="2"></path><path d="M429.16 561.96C570.5 520.2 603.23 129.15 819.03 119.77 1034.82 110.39 1013.96 189.77 1208.89 189.77 1403.83 189.77 1499.74 120.05 1598.76 119.77" stroke="rgba(83, 126, 93, 1)" stroke-width="2"></path></g><defs><mask id="SvgjsMask1003"><rect width="1440" height="560" fill="#ffffff"></rect></mask></defs></svg>