<svg xmlns="http://www.w3.org/2000/svg" version="1.1" xmlns:xlink="http://www.w3.org/1999/xlink" xmlns:svgjs="http://svgjs.dev/svgjs" width="1240" height="560" preserveAspectRatio="none" viewBox="0 0 1240 560"><g mask="url(&quot;#SvgjsMask1372&quot;)" fill="none"><rect width="1240" height="560" x="0" y="0" fill="url(&quot;#SvgjsLinearGradient1373&quot;)"></rect><path d="M84.12 442.62 a150.24 150.24 0 1 0 300.48 0 a150.24 150.24 0 1 0 -300.48 0z" fill="rgba(114, 191, 128, 0.48)" class="triangle-float2"></path><path d="M-110.31 399.68 a128.84 128.84 0 1 0 257.68 0 a128.84 128.84 0 1 0 -257.68 0z" fill="rgba(114, 191, 128, 0.48)" class="triangle-float1"></path><path d="M786.785,92.512C802.058,93.217,814.99,82.596,822.858,69.487C830.999,55.923,834.736,39.24,827.062,25.406C819.194,11.222,802.992,3.796,786.785,4.456C771.642,5.073,758.551,14.894,751.816,28.471C745.756,40.687,749.521,54.434,756.056,66.402C762.96,79.046,772.394,91.847,786.785,92.512" fill="rgba(114, 191, 128, 0.48)" class="triangle-float1"></path><path d="M1063.919,468.569C1113.129,470.761,1159.208,446.04,1186.172,404.816C1216.146,358.99,1234.652,298.821,1205.103,252.72C1176.883,208.692,1116.196,212.692,1063.919,214.08C1015.106,215.376,959.642,217.645,935.147,259.887C910.604,302.211,933.487,353.069,959.179,394.705C983.225,433.672,1018.175,466.531,1063.919,468.569" fill="rgba(114, 191, 128, 0.48)" class="triangle-float3"></path><path d="M490.403,385.888C514.524,385.914,534.248,369.387,546.818,348.8C560.057,327.118,567.775,300.86,556.094,278.301C543.589,254.151,517.59,240.505,490.403,239.848C461.97,239.161,432.022,249.717,418.971,274.987C406.635,298.873,419.637,326.079,434.195,348.68C447.235,368.926,466.321,385.862,490.403,385.888" fill="rgba(114, 191, 128, 0.48)" class="triangle-float1"></path><path d="M-12.18 502.79 a126.91 126.91 0 1 0 253.82 0 a126.91 126.91 0 1 0 -253.82 0z" fill="rgba(114, 191, 128, 0.48)" class="triangle-float1"></path><path d="M894.98 101.52 a141.51 141.51 0 1 0 283.02 0 a141.51 141.51 0 1 0 -283.02 0z" fill="rgba(114, 191, 128, 0.48)" class="triangle-float3"></path><path d="M-17.23 130.31 a129.74 129.74 0 1 0 259.48 0 a129.74 129.74 0 1 0 -259.48 0z" fill="rgba(114, 191, 128, 0.48)" class="triangle-float2"></path><path d="M490.58 389.58 a98.2 98.2 0 1 0 196.4 0 a98.2 98.2 0 1 0 -196.4 0z" fill="rgba(114, 191, 128, 0.48)" class="triangle-float1"></path></g><defs><mask id="SvgjsMask1372"><rect width="1240" height="560" fill="#ffffff"></rect></mask><linearGradient x1="0%" y1="50%" x2="100%" y2="50%" gradientUnits="userSpaceOnUse" id="SvgjsLinearGradient1373"><stop stop-color="rgba(15, 22, 12, 1)" offset="0"></stop><stop stop-color="rgba(51, 69, 37, 1)" offset="1"></stop></linearGradient><style>
                @keyframes float1 {
                    0%{transform: translate(0, 0)}
                    50%{transform: translate(-10px, 0)}
                    100%{transform: translate(0, 0)}
                }

                .triangle-float1 {
                    animation: float1 5s infinite;
                }

                @keyframes float2 {
                    0%{transform: translate(0, 0)}
                    50%{transform: translate(-5px, -5px)}
                    100%{transform: translate(0, 0)}
                }

                .triangle-float2 {
                    animation: float2 4s infinite;
                }

                @keyframes float3 {
                    0%{transform: translate(0, 0)}
                    50%{transform: translate(0, -10px)}
                    100%{transform: translate(0, 0)}
                }

                .triangle-float3 {
                    animation: float3 6s infinite;
                }
            </style></defs></svg>