<svg id="Capa_1" data-name="Capa 1" xmlns="http://www.w3.org/2000/svg" viewBox="0 0 372.74 374.35"><defs><style>.cls-1{fill:#fff;}</style></defs><title>phoenix-page</title><path class="cls-1" d="M141.68,572a8.07,8.07,0,0,1,1.07,1.12c5.53,8.39,11,16.85,16.58,25.2,11.28,16.78,24.81,31.66,39.48,45.5,6.36,6,13,11.73,19.42,17.63a2.15,2.15,0,0,0,2.45.48c14.73-4.74,27.35-13,38.71-23.29,8.95-8.15,16.82-17.29,24.63-26.49.66-.78,1.19-1.53,2.37-.76.22.14.81-.1,1.13-.31,1.92-1.33,3.82-2.71,5.73-4.07.39-.28.79-.53,1.5-1-.33,3.9.52,7.48-1.43,11-7.76,14.15-17,27.11-29.06,38-5.31,4.79-11.62,8-18.07,11-5,2.3-10.05,4.54-15.22,6.41A18.44,18.44,0,0,1,224,673c-12.8-.66-24.2-5.12-34.55-12.62a51.88,51.88,0,0,1-15.3-16.7c-10.3-18.34-20.26-36.86-27.88-56.51-1.84-4.75-3.1-9.73-4.63-14.61Zm9.38,19.31-.54.3c.19.43.36.87.57,1.29q11.24,22,22.48,44c6.57,12.84,16.65,22.12,29.25,28.82a52,52,0,0,0,19.66,5.61c-.8-.79-1.36-1.39-1.95-1.94-13.13-12.06-26.35-24-38.66-36.93a139.5,139.5,0,0,1-16.54-20.28C160.74,605.07,155.83,598.22,151.06,591.26Zm70.41,73.57c1.76,1.4,3.28,2.68,4.9,3.83a2.09,2.09,0,0,0,1.6.08c5.12-1.75,10.27-3.41,15.3-5.39,7.33-2.9,14.29-6.45,20-12.09,11.24-11,20.5-23.55,28.61-37a21.53,21.53,0,0,0,1.48-4.45l-.41-.23c-1,.67-2,1.3-3,2-4.66,3.49-8.27,8-11.94,12.45A128.4,128.4,0,0,1,250,649.83,173,173,0,0,1,221.47,664.83Z" transform="translate(-141.68 -425.64)"/><path class="cls-1" d="M366.61,492.72c2.38-2.87,4.33-5.45,6.53-7.78a56.19,56.19,0,0,1,5.5-4.81c3.25-2.63,6.9-3.14,11-2.5a144.17,144.17,0,0,0,17.44,1.91c15.6.53,30.14-3.59,43.74-11.05a148.36,148.36,0,0,0,14.1-8.88c5.75-4.07,9.72-9.67,12.6-16.07.69-1.52.72-1.54,2.66-1.64a32.54,32.54,0,0,1-4.89,10.21c-4.59,6.64-10.52,11.93-17,16.63-5.37,3.9-10.9,7.59-16.35,11.37-.42.3-.83.62-1.1.83,4.66,1.38,9.36,2.61,13.94,4.16,6.14,2.07,12.12,4.62,18.3,6.54a101.1,101.1,0,0,0,22.47,3.81c6,.46,12.08.75,18.13,1.12a1,1,0,0,1,.71.29c-2.47.68-4.92,1.43-7.41,2-12.94,3.11-25.86,6.28-38.84,9.2a123.66,123.66,0,0,1-14.47,2.12,11.82,11.82,0,0,1-5.42-.77c-3.24-1.31-6.33-3-9.44-4.59a8.07,8.07,0,0,1-2.21-2c9.61,4.06,19.52,4.17,29.56,2.82l.07-.45-8.19-1.44,0-.33c3,.32,6,.5,8.92,1,4.11.69,7.76-.55,11.42-2v-.53L456.5,500v-.1h18.61a10.09,10.09,0,0,0-5.42-2.48c-5.1-.75-10.19-1.64-15.25-2.74h12.4a46.46,46.46,0,0,0-13.93-5.85c-5-1.08-10-.73-15.09-.41l5.32-4,0-.48a19.79,19.79,0,0,0-4.42-.84c-4.77.17-9.54.56-14.3.89-5.07.36-10.13.81-15.19,1.1-7.76.45-15.53.61-23.26,1.24-7.49.62-13.2,4.45-17.16,10.83-1.21,1.94-2.27,4-3.43,6a19.33,19.33,0,0,1-6.71,6.8c-4.91,3-9.65,6.31-14.57,9.3a40.42,40.42,0,0,1-14.73,5.82,16.06,16.06,0,0,1-16-6.28c-.39-.48-.77-1-1.15-1.46l-.45.15c.79,3.56,1.58,7.12,2.35,10.55-3.56-4.13-6.21-8.94-5.44-14.79.74-5.6,2-11.13,3.15-16.67A15.21,15.21,0,0,0,310.18,486c-1.72-3.19-7-5.31-10.32-4a16.88,16.88,0,0,0-10.54,11.71,6,6,0,0,0,1.08,4.86c1.26,2.06,2.5,4.13,3.74,6.2.64-2.19,2.64-3.48,4.46-5a10.44,10.44,0,0,0,4.12-7.78,13,13,0,0,1,.32-1.77,5.79,5.79,0,0,1,.21,6.34,12.55,12.55,0,0,1-3.58,4.13c-2.92,1.95-4.17,4.66-4.7,7.9-.21,1.3-.4,2.61-.69,3.89-.07.32-.49.56-.75.83-.25-.29-.5-.57-.74-.86a.19.19,0,0,1,0-.15c.3-4.58-1.46-8.56-3.56-12.46-3-5.55-2-10.46,2-15.23,4.77-5.66,10.46-10.24,16.09-14.92,4.8-4,9.22-8.31,11.8-14.16,2.72-6.15,3.07-12.63,2.76-19.23a23.32,23.32,0,0,0-3.16-10.63c.71.58,1.47,1.13,2.14,1.77,4.55,4.32,6.3,9.84,6.25,15.88a72.82,72.82,0,0,1-1.2,11.77c-.8,4.52-3.6,8-6.63,11.35a45.09,45.09,0,0,1-15.74,11.45c-.67.28-1.32.61-2.21,1,1.49.38,2.8.63,4,1.06,4.89,1.72,8.89,4.55,10.13,9.84.52,2.19.05,4.64-.14,6.95-.39,4.61-.94,9.21-1.3,13.83a17.6,17.6,0,0,0,.32,4.08,8.92,8.92,0,0,0,7.83,7.17,35.4,35.4,0,0,0,25.29-8.15c4.27-3.48,8.05-7.55,12.05-11.35,1.29-1.22,1.44-2.87,1.52-4.46a87.24,87.24,0,0,0,.13-10.35c-.13-1.81-1.16-3.58-1.88-5.33-.52-1.29-1.2-2.53-2-4.11C363.57,481.14,367,485.61,366.61,492.72Z" transform="translate(-141.68 -425.64)"/><path class="cls-1" d="M307.46,702.42c-3.71,7.05-7.25,14-11,20.86-8.72,16-18.25,31.39-30,45.38A217.19,217.19,0,0,1,237.29,798c-.83.68-1.7,1.31-2.56,2-.06,0-.18,0-.5,0,2.2-2.58,4.3-5,6.38-7.5C254.5,776,267.94,759.19,280,741.3c4.42-6.56,7.41-13.84,10.26-21.15,2.39-6.13,4.4-12.4,6.62-18.59.45-1.25.08-1.66-1.15-2A31.47,31.47,0,0,1,278,687.18c-.22-.29-.39-.61-.8-1.27l7.65,4.46A24.43,24.43,0,0,0,296,693.91a1.26,1.26,0,0,0,1.55-1.06c3.56-12,7.34-23.87,9.56-36.17.9-4.93,1.16-10,1.69-15,.07-.67,0-1.35,0-2.35l3,1.25c2.3-9,4.58-17.88,6.92-27,1.21.54,2.29,1,3.4,1.5s2.14.79,3.67,1.34c.33,2.1.77,4.77,1.17,7.44,1.82,12-.39,23.57-4,34.89-3.94,12.4-8.32,24.66-12.51,37-.05.14-.09.27-.25.75,2.9.4,5.7.94,8.53,1.14,8.14.56,16.18-.48,24.15-2a1.71,1.71,0,0,0,1-.86c6.1-12.95,10.13-26.41,9.71-40.9a90.39,90.39,0,0,0-6.79-30.7,120.76,120.76,0,0,0-11.88-23.46c-2.35-3.48-2.7-7.15-3.56-10.87-.12-.52-.2-1.05-.28-1.58-.37-2.32-.36-2.28,1.9-3.12a1.1,1.1,0,0,1,1.56.5C346.37,602,356.9,620,364.4,639.71a111.55,111.55,0,0,1,6.42,23.82,32.9,32.9,0,0,1-7.75,26.85,74,74,0,0,1-20.33,16.8,11,11,0,0,1-6.45,1.27,108,108,0,0,1-27.72-5.73C308.21,702.6,307.83,702.52,307.46,702.42ZM350,690.86c2.5-.91,4.61-2.8,6.7-4.7,4.75-4.32,8.42-9.35,9.81-15.77,1.21-5.63.38-11.16-1-16.65-2.59-10.35-6.66-20.16-11.2-29.79a253.09,253.09,0,0,0-19.16-34.5c-.37-.55-.79-1.07-1.42-1.92.14,1.15.22,1.87.32,2.58a16.15,16.15,0,0,0,3.71,9.06,14.88,14.88,0,0,1,2.33,3.87c3.85,8.74,7.73,17.47,11.39,26.29A71.79,71.79,0,0,1,355,674.94C353.71,680.35,351.67,685.59,350,690.86Zm-28.68-73-.54.2c-.1.27-.2.54-.28.82-2.11,7.3-4.24,14.6-6.3,21.92-.28,1-.65,1.71-1.68,2-.83.21-1.05.73-1.15,1.57-.46,3.88-.95,7.75-1.59,11.6-1.81,11-4.92,21.67-8.19,32.31-.55,1.79-1,3.63-1.5,5.55l7.67,1.55c.21-.5.38-.85.51-1.21,2.81-8.31,5.93-16.53,8.35-24.95,4.54-15.78,5.81-32,5.91-48.39C322.5,619.82,321.71,618.85,321.29,617.87Zm-32.86,76.36-.17.48c4,1.39,8,2.94,12.13,4.14,11.24,3.3,22.79,5.24,34.28,7.46a10.56,10.56,0,0,0,7.75-1.47,63.27,63.27,0,0,0,19.39-17.38c.76-1,1.45-2.14,2.18-3.21a2.81,2.81,0,0,0-1.3.66c-2.27,1.77-4.52,3.57-6.82,5.31a48.85,48.85,0,0,1-32,10,127.83,127.83,0,0,1-22.47-3C297,696.31,292.74,695.24,288.43,694.23Zm-.22,37.25c6.2-9.34,12-18.88,16-29.55-1.16-.16-2.14-.21-3.09-.42-1.47-.34-2,.34-2.4,1.66-2.08,6.18-4.22,12.35-6.47,18.47C291,725,289.57,728.2,288.21,731.48Z" transform="translate(-141.68 -425.64)"/><path class="cls-1" d="M362.59,569.83c-.29-2.13-.58-4.23-.86-6.34l.28-.08c.44,1.2.89,2.39,1.33,3.6a18.32,18.32,0,0,1,1,2.89c.67,3.62,3.41,4.62,6.49,5.32-1.51-2.83-3.14-5.53-4.43-8.4a71.59,71.59,0,0,1-3.13-8.9c3.12,4.9,4,11.12,9.39,14.61l-2.62-10,.31-.17,3.3,5.6A28.69,28.69,0,0,0,368,552.63a6.85,6.85,0,0,1,6.89,4.4c.73-2.61.54-4.62-1.4-6.57-2.88-2.89-5.24-6.23-5.6-10.51a26.13,26.13,0,0,1,.21-5.57c1.08,3.7.23,8.09,4.29,10.86-.08-1.34-.14-2.48-.21-3.61,1.2,4.34,1.65,9.16,7.36,10.48-.7-2.16-1.39-4.31-2.08-6.47l.26-.15c.45.74.92,1.48,1.35,2.23.86,1.48,1.82,2.91,2.53,4.46a3.13,3.13,0,0,0,3.78,2l-2.77-9.39.4-.17c1.19,2.37,2.5,4.68,3.55,7.11a6.3,6.3,0,0,0,4.45,3.8c-1.32-4-2.59-8-3.87-11.87l.31-.15L393,553.6c.45-1.87.61-3.37-.23-4.88-1.43-2.59-2.82-5.2-4.23-7.81l.32-.26,4.63,4.36a46.31,46.31,0,0,0-4.84-13.19c-2.27-3.9-4.75-7.67-7.14-11.5l.34-.32a28.42,28.42,0,0,1,2.74,2.24c7.41,7.67,12.87,16.45,14.7,27.11a75,75,0,0,0,8.91,25.08c.11.2.19.41.44.94-5.24-4-8.43-10.31-15.65-11.46l-2,15.82-13.11-12.08v19.27a3.32,3.32,0,0,1-.82-.35c-8.49-6.16-16.4-13-23-21.19-3.79-4.75-5.26-10-3.88-16,.09-.41.26-.8.5-1.51,1.62,6.22,1.71,12.74,6.91,17.46.24-.94.42-1.62.6-2.3l.32-.07c.34,1.37.75,2.73,1,4.11A3,3,0,0,0,362.59,569.83Zm18-3.59c-.11-1.74-.21-3.39-.31-5a36,36,0,0,1,2.35,6.32,3.57,3.57,0,0,0,3.33,2.78c-.39-2.06-.77-4-1.15-6l.21-.1,3.25,6.39.39,0c.54-2.51,1.12-5,1.57-7.54.05-.33-.45-.91-.83-1.13-3.52-2-7.06-3.93-10.61-5.88a6,6,0,0,0-.94-.29c.14,2.63.37,5.11.38,7.59A2.68,2.68,0,0,0,380.57,566.24Z" transform="translate(-141.68 -425.64)"/><path class="cls-1" d="M335.71,583.05h-8.9c2.93,4.82,4.32,9.74,5.53,15l-8.22-2.91c3.64,6.47,2.21,12.69.6,19.37L317.09,610c-2.16,9.34-4.36,18.88-6.62,28.68-4.78-9.75-6-19.87-5.66-30.34a23.66,23.66,0,0,0-4.13,9.71c-.72,3.46-1.16,7-1.76,10.68-3.7-9.79-4.25-19.41-.24-29.12l-.34-.13-11.16,9.93a31.25,31.25,0,0,1,5.28-12.64c2.73-3.7,5.94-7,8.85-10.45l-9.37,3.78c.23-1,.36-1.7.54-2.38,1.75-6.34,5.37-11.55,9.93-16.15a2,2,0,0,0,.5-2.54c-.92-2-1.69-4.11-2.61-6.38,3.48,1.37,5.79,5.57,9.88,17.57,5.17-9.15,6.15-18.7,3.74-28.74l.43,0c.85,2.11,1.72,4.21,2.56,6.32.51,1.27,1,2.54,1.47,3.83a10.75,10.75,0,0,0,3.56,5C326.38,570.13,333.61,578.88,335.71,583.05Zm-19.4-10c-.31,7.76-4.42,13.44-8.37,19.26l-1-8.62c-.45.59-.61.88-.84,1.11-1.74,1.76-3.41,3.59-5.26,5.24a34.41,34.41,0,0,0-6.79,8.69l.19.42,7-2a42.42,42.42,0,0,0-2,17.24c2.31-3.37,4.41-6.43,6.74-9.81,1.18,8.12,2.3,15.78,3.42,23.45,3.91-8.08,5.2-16.7,6.36-25.46l7.32,6.09a29.92,29.92,0,0,0-1.95-16.39l7.29.5C325.64,585.38,322.05,578.84,316.31,573Zm15,7.64c-3.08-5.65-7.54-9.74-12.76-13.31a11.89,11.89,0,0,1-.33,1.4,3,3,0,0,0,.88,3.61,68.65,68.65,0,0,1,5.82,6.36C326.67,580.93,328.8,581,331.35,580.68Zm-34.94,5.05a23.92,23.92,0,0,0,8.74-5,1.81,1.81,0,0,0,.51-1.4c-.36-1.64-.87-3.25-1.38-5.06C299.22,576.52,297.83,580.94,296.41,585.73Z" transform="translate(-141.68 -425.64)"/><path class="cls-1" d="M428.62,553.65l8.94,7.29.36-.3-6.1-9.56.32-.22,6.73,8.39a20,20,0,0,1,1.7,2.21c1.19,2,3,2.59,5.49,2.48l-8.61-13.25.33-.24c2.54,3,5.11,6,7.62,9,1.19,1.42,2.35,2.88,3.43,4.38a9.72,9.72,0,0,0,5.38,3.48c-3.55-5-7-9.83-10.36-14.64l.36-.28,8.84,10.53.47-.3c-3-5.27-5.93-10.55-9-16l5.1,4a111.5,111.5,0,0,0-9-16.59c-3.58-5.28-9.19-8.23-14.11-12.5,2-.4,3.59-.49,5.16.43,6.94,4,12.28,9.73,16.91,16.18A35.15,35.15,0,0,1,454,549.22a161.17,161.17,0,0,0,10.79,27.14c.3.61.58,1.23,1,2.18-.72-.22-1.15-.32-1.56-.48a179.26,179.26,0,0,1-26.34-12.32C433.88,563.43,429.52,557.86,428.62,553.65Z" transform="translate(-141.68 -425.64)"/><path class="cls-1" d="M361.84,575.18c.91.86,1.85,1.7,2.74,2.58a1.24,1.24,0,0,1,.34.88c-1,7.84-2,15.68-3.05,23.63a4.27,4.27,0,0,1-.62-.26,67.35,67.35,0,0,1-14.71-15.61c-3.43-5.16-4.55-10.93-4.5-17a2.49,2.49,0,0,0-1.17-2.27c-2.71-2.08-5.38-4.21-8-6.43a21,21,0,0,1-6.22-9.25,2.57,2.57,0,0,0-.79-1.19q-1.19,4.38-2.36,8.75c-4.78-1-9-8.06-8.14-13.75,1.82,3.37,2.73,7.12,6.17,9.32l3.51-10.93,6.1,10.83.3-.09-.57-5.55c2.25,3.41,2.75,7.68,5.37,10.86l.48-.11L335.48,549l.27-.07q1,4.13,2,8.25c.17.71.31,1.43.47,2.14.47,2.08.48,2.08,2.84,3-.66-3.95-1.31-7.74-1.95-11.54l.23-.1,3.92,9.89c2.76-2.64,2.5-6-1-13.63l3.06,1.79L343.83,544c1.5,1.6,4.11,7.69,4.15,9.74.1,5.47.15,10.94.21,16.41a3.54,3.54,0,0,1-.12.52l-1.65-.41c-1.42,5.33.16,10.18,5.19,16.67v-3.72c1,2.71.63,6.12,4.29,7.36v-9.61l.46-.07c.85,3.55,1.71,7.09,2.6,10.82a17.81,17.81,0,0,0,2.42-16.41Z" transform="translate(-141.68 -425.64)"/><path class="cls-1" d="M382.79,504.89c4.25,3.82,8.16,8.19,14.39,9.08l-3.37-2.84.39-.48c4.81,2.61,9.06,6.38,14.78,7.2l-7.07-6,.18-.25c1.06.69,2.14,1.37,3.18,2.09,1.88,1.31,3.84,2.54,5.59,4s3.67,1.45,5.85.42c-1.71-1.19-3.32-2.33-4.93-3.46l.14-.23,5.2,3.09c2.6,1.55,2.61,1.55,5.21-.56l-8.84-6.14.15-.28c1.22.64,2.46,1.27,3.66,1.93,2,1.08,4,2.1,5.86,3.31s3.5.73,5.73.18l-11-6.41.17-.34,7.69,3.36a42.6,42.6,0,0,0,4.84,2.06,12.24,12.24,0,0,0,3.32.06l.11-.47-13.23-8,.13-.26,11.58,5.21a18.62,18.62,0,0,0-5.44-5.95c-4.35-3.23-9.34-5.25-14.24-7.43-1.6-.71-3.17-1.5-4.74-2.28a12.27,12.27,0,0,1-1.16-.77l.14-.52a37,37,0,0,1,4.23.54,44,44,0,0,1,13.13,6c10.67,6.64,21.93,12.13,33.29,17.44.18.08.35.17.8.4a8.49,8.49,0,0,1-1,.11,171.35,171.35,0,0,0-29.08,1.51,81.44,81.44,0,0,1-30.52-1.71C391.67,516.93,385.09,510.78,382.79,504.89Z" transform="translate(-141.68 -425.64)"/><path class="cls-1" d="M207.82,475.4l-25.57-5.72a2.62,2.62,0,0,0-.56.07l7.75,6.88-.2.33-13.93-7.41-.2.3L186.9,481l-.27.36-16.78-11.61L188.1,488l-.31.43c-3.38-.72-6.89-.77-9.65-3.57-6.3-6.4-12.86-12.55-19.11-19-3.73-3.84-7.07-8.06-10.58-12.11l.22-.31,2.13,1.11c8.16,4.2,16.39,8.28,25.34,10.51,6.1,1.51,12.3,2.61,18.43,4A30.84,30.84,0,0,1,206.36,474c.39.29.77.6,1.14.92A3,3,0,0,1,207.82,475.4Z" transform="translate(-141.68 -425.64)"/><path class="cls-1" d="M186.4,497.11a15.56,15.56,0,0,0,2.3,1.78c2.55,1.34,5.15,2.55,7.73,3.83a2.06,2.06,0,0,1,1,.92l-8.08-2.74c1.1,1.81,5.36,4.86,9,6.49a29.71,29.71,0,0,0,10.86,2.72c3.73.13,7.47,0,11.2,0l.1.69c-2.13.53-4.24,1.22-6.4,1.55a17.93,17.93,0,0,1-9.37-1c-8.07-3.2-16.34-6.05-23.47-11.14-4.23-3-8.05-6.63-12.05-10a7.61,7.61,0,0,1-.71-.87c2.87.37,5.57.76,8.27,1.06,9.53,1.08,18.77-.39,27.89-3.07,4-1.17,8-1.75,12.11-.39a11.72,11.72,0,0,1,5.65,3.75,5.39,5.39,0,0,1,1.14,5.72c-.13,0-.3,0-.39-.11-4.46-4.51-10.17-5.37-16.09-5.25-4.23.09-8.46.63-12.69,1l-.07.46,6.55,2.44-.07.35-12.35-1.43-.11.31L198.53,499l-.11.31-11.75-2.64Z" transform="translate(-141.68 -425.64)"/><path class="cls-1" d="M209.35,463.72a51.57,51.57,0,0,0,7.75,11.48,83.52,83.52,0,0,0,6.69,6.34c4.65,4,10.3,5.31,16.26,5.72,2.33.16,4.67.37,7,.71a18.6,18.6,0,0,1,11.38,6.38l2,2.23c.61-2.85,1.18-5.53,1.76-8.21l.27,0c.69,3.18,1.22,6.41,2.11,9.53a117.63,117.63,0,0,0,3.8,11.18,23.3,23.3,0,0,0,6,8.06,3.28,3.28,0,0,0,1.77.86c1.74.21,3.5.3,5.26.34a4,4,0,0,0,1.65-.49,14.78,14.78,0,0,1,3.15-1.25c-1.37,2.28-2.69,4.58-4.16,6.8a2.07,2.07,0,0,1-1.67.46,13.45,13.45,0,0,1-6.89-3.32c-.89-.73-1.75-1.51-3-2.56.56,2,1,3.53,1.43,5.09l-.26.11c-.59-1.05-1.2-2.09-1.75-3.16-2.59-5-5.27-9.9-7.69-15a19.59,19.59,0,0,0-6.35-7.48c-5.69-4.19-12.18-6.46-18.88-8.35-3.47-1-6.91-2-10.32-3.22-9.43-3.25-14.78-10.08-16.93-19.63-.16-.72-.25-1.45-.36-2.17A4.34,4.34,0,0,1,209.35,463.72Z" transform="translate(-141.68 -425.64)"/><path class="cls-1" d="M196.11,553.8c2.69-6,5.17-11.77,7.87-17.44a63.92,63.92,0,0,1,9-14.2c.64-.74,1.34-1.42,2-2.15a12.22,12.22,0,0,1,11.78-4.21c-.69.39-1.23.74-1.8,1-1.57.79-3.16,1.53-4.72,2.34-7.27,3.74-10.73,10.16-12.28,18l7.41-6.74.15.09a5.78,5.78,0,0,1-.42.73c-2.46,3.1-4.9,6.21-7.41,9.27a2.73,2.73,0,0,0-.23,3.52l9.08-8.5.32.27-6,7.54.23.28,10.54-8,.25.26-4.69,5.69c2.13-.68,4.33-1,5.53-3.38,1.58-3.06,3.43-6,5.17-9l.32.15-3.68,9.41a10,10,0,0,0,2.36-1.07,39.39,39.39,0,0,0,5.13-5.12,56.88,56.88,0,0,0,3.74-6.61c.23-.41.45-.82.67-1.23l.45.15a43.46,43.46,0,0,1-1.57,5.47,26.23,26.23,0,0,1-12.08,13.27c-8.31,4.4-17.22,7.28-26.16,10.09A5.89,5.89,0,0,1,196.11,553.8Z" transform="translate(-141.68 -425.64)"/><path class="cls-1" d="M298.63,441.72C300.8,444.86,303,448,303,452c0,5.48,0,10.95-2.14,16.14A23.3,23.3,0,0,1,294.8,477a39.32,39.32,0,0,0-5.64,6.3,16.65,16.65,0,0,0-2.52,15.3c.19.63.33,1.28.53,2.07a4.42,4.42,0,0,1-3.23-3.54c-.75-3.27-1.29-6.58-1.81-9.9-.75-4.71-1.26-9.47-2.17-14.15a16.18,16.18,0,0,0-2.36-5,2.52,2.52,0,0,0-2.82-1.4,3,3,0,0,0-2.23,2.63,12.81,12.81,0,0,0-.06,2.32,5.39,5.39,0,0,1-.09,1.59c-1.12-1.31-2-2.75-1.58-4.49a4.32,4.32,0,0,1,3.73-3.58,8.09,8.09,0,0,1,8.84,4,17.44,17.44,0,0,1,2.91,12.1c-.07.58-.08,1.16-.12,1.77.15,0,.27,0,.29-.06,1.7-4.74,4.65-8.75,7.37-12.93a62.65,62.65,0,0,0,5.16-9.62c2.2-5.17,1.58-10.52.31-15.83C299.08,443.6,298.86,442.66,298.63,441.72Z" transform="translate(-141.68 -425.64)"/><path class="cls-1" d="M218.35,568.22l5.44-4.83.32.27-5.84,8.4c5-1.42,7.42-6.11,11.86-8.95L225.25,570a55.67,55.67,0,0,0,15.15-12.37l.51.36c-.79,1.44-1.3,3.14-2.41,4.27a79.58,79.58,0,0,1-9.14,8.38c-5.75,4.27-11.79,8.16-17.71,12.2a9.43,9.43,0,0,1-.86.43c.44-2.78.81-5.37,1.26-7.95,1.22-7,2.73-13.87,5.58-20.39a22.55,22.55,0,0,1,5.57-8.33,39,39,0,0,1,4.16-2.77l.46.5c-.87,1.11-1.67,2.28-2.61,3.32a25,25,0,0,0-6,11.55c-.14.66-.25,1.32-.43,2.26l5.92-3.09.29.37c-1.77,1.7-3.56,3.39-5.31,5.1C218.25,565.27,218.09,565.83,218.35,568.22Z" transform="translate(-141.68 -425.64)"/><path class="cls-1" d="M416.69,549l-3.82-8,.31-.22,4.41,5.81c1.13-2.31,1.05-3.36-.39-5.25a54,54,0,0,1-3.94-5.64l4.82,3.38a20.33,20.33,0,0,0-4.26-8.23c-2-2.19-4.26-4.11-6.45-6.19a3.78,3.78,0,0,1,3.67-.19,15.38,15.38,0,0,1,7.56,7.69,98.61,98.61,0,0,1,4.86,13c1.5,5.13,2.49,10.41,3.79,16a5.74,5.74,0,0,1-1-.51c-6.49-5.82-13.89-10.41-21-15.41a37,37,0,0,1-5.77-5.35,6.28,6.28,0,0,1-1.59-5.7c2.95,4.79,6.27,8.79,11.54,11.17C408.67,543,408,541,407.26,539l.3-.16c1.28,1.76,2.57,3.52,3.84,5.3,1,1.43,2.05,2.86,3,4.34A1.54,1.54,0,0,0,416.69,549Z" transform="translate(-141.68 -425.64)"/><path class="cls-1" d="M251.17,568.55l-1.92,6.2.26.16,6.94-8.2c0,4.72-13.27,25.5-19.09,29.92.18-3.3.25-6.45.56-9.57.58-5.93,1.15-11.86,2-17.74a56.87,56.87,0,0,1,2.49-9.15c.8-2.44,2.05-4.66,4.94-5.67-2.88,5.56-5,11.25-4.24,17.72l4-6.14c-.76,4.62-4.26,8.36-3.66,13.47l7.39-11.08Z" transform="translate(-141.68 -425.64)"/><path class="cls-1" d="M338.13,530.75c6.79-2,12.13-6.2,17.26-10.77,3-2.7,6-5.42,9.19-8a16.35,16.35,0,0,1,9.7-4h1.88c-3.62,2.6-8,3.7-9.3,8.17a55.27,55.27,0,0,1,5.59,1.75,8.14,8.14,0,0,1,4,4.1c-1.47,0-2.82,0-4.17,0a9.86,9.86,0,0,0-6.38,2.61c-1.86,1.65-3.6,3.44-5.5,5a7.31,7.31,0,0,1-6.94,1.76,1.42,1.42,0,0,1-.4-.17,2.45,2.45,0,0,1-.32-.38c6.78-1.93,11.65-6.41,16.25-11.64a12.07,12.07,0,0,0-7.2.15,27.59,27.59,0,0,0-9.81,6c-1.84,1.6-3.53,3.38-5.37,5a3.4,3.4,0,0,1-2.05.79C342.39,531.12,340.26,530.9,338.13,530.75Z" transform="translate(-141.68 -425.64)"/><path class="cls-1" d="M262.7,570.54l3.84-9.94.26.09c-.52,2.51-1,5-1.62,7.9,3.5-3.32,3.67-7.69,5.37-11.5v5l.41.08c1.23-2.74,2.45-5.49,3.68-8.24-.36,9.77-5.91,19.33-14.64,26.53-.44-2.51-.9-4.89-1.25-7.29a38.38,38.38,0,0,1,1-16.09c.82-2.93,2.25-5.15,5.42-6.3C262.08,557.09,259,563.27,262.7,570.54Z" transform="translate(-141.68 -425.64)"/><path class="cls-1" d="M250.88,531.6a21,21,0,0,1-1.5,2.46c-2.15,2.72-4.31,5.43-6.58,8.05a3.93,3.93,0,0,0-.82,3.69l7.9-8.5.33.23-4.48,6.66a17.42,17.42,0,0,0,6.35-4.39c1.89-1.81,3.81-3.6,5.41-5.11-1.83,6-13.65,16.11-20.5,17,1.58-12.39,4.09-24.24,14.95-32.21l.5.26c-1.05,1.79-2,3.65-3.16,5.37-1.72,2.54-3.7,4.9-5.36,7.48a8.93,8.93,0,0,0-1.35,6.28c1.25-1.4,2.48-2.81,3.74-4.19S248.78,531.91,250.88,531.6Z" transform="translate(-141.68 -425.64)"/><path class="cls-1" d="M187.83,527.06l12.59-4.95.17.31-8.14,4.69.13.34,9.44-2.09.12.27-5.5,2.64.07.36,9.46-.46c-3.41,3.18-17.35,4.94-26.9,3.46,0-.13,0-.31,0-.38,4.64-4.54,9.15-9.22,14-13.54a12.59,12.59,0,0,1,11.55-3.2,3.56,3.56,0,0,1,.56.15c.07,0,.12.14.34.4C197.69,516,192.11,520.49,187.83,527.06Z" transform="translate(-141.68 -425.64)"/><path class="cls-1" d="M288.57,519.11c.76,2.52,1.11,4.6.28,6.94-1.92,5.46-3.74,11-4.13,16.93l6.42-9.7c-1,6.5-4,12-8.2,17-2-6.35-2.61-12.52.1-18.67,1.74-4,3.5-7.93,5.25-11.89C288.34,519.58,288.41,519.45,288.57,519.11Z" transform="translate(-141.68 -425.64)"/><path class="cls-1" d="M289.86,543.66q1.06,5.46,2.12,10.91l.49,0q.52-2.74,1.06-5.5h.29q1.11,6.78,2.2,13.56l-.29.21a31.54,31.54,0,0,1-3.41-3.43,50.49,50.49,0,0,1-4.37-6.84c-.47-.91-.15-2.35.09-3.48.4-1.83,1-3.61,1.58-5.42Z" transform="translate(-141.68 -425.64)"/><path class="cls-1" d="M267.63,541a23.47,23.47,0,0,1-12.32,13.68c-.25-4.87.68-14.55,4.07-16.95-1.45,4.6-2.63,9-2.37,13.94C261.09,548.47,264.85,545.25,267.63,541Z" transform="translate(-141.68 -425.64)"/><path class="cls-1" d="M282.24,569.67c-1.37-3-2.78-6.07-4.1-9.13a2.75,2.75,0,0,1,.67-3q1.45,4.14,2.89,8.27l.58,0c1.17-2.2,2.34-4.4,3.63-6.81a25.1,25.1,0,0,1-3.06,10.47Z" transform="translate(-141.68 -425.64)"/><path class="cls-1" d="M298.24,491.51l-2.18,5.65C294,494.33,294.92,492.05,298.24,491.51Z" transform="translate(-141.68 -425.64)"/></svg>